<svg width="31" height="31" viewBox="0 0 31 31" fill="none" xmlns="http://www.w3.org/2000/svg">
<path d="M1 0.489105C0.447715 0.489105 0 0.93682 0 1.48911C0 2.04139 0.447715 2.48911 1 2.48911V0.489105ZM4.43881 1.48911L5.40403 1.22769C5.28597 0.791788 4.89041 0.489105 4.43881 0.489105V1.48911ZM10.0269 22.1219L9.06164 22.3834C9.19191 22.8644 9.65643 23.176 10.1509 23.1142L10.0269 22.1219ZM27.2209 19.9727L27.3449 20.965C27.7696 20.9119 28.1134 20.5944 28.2001 20.1753L27.2209 19.9727ZM29.8 7.50702L30.7793 7.70962C30.8402 7.41511 30.7653 7.10881 30.5754 6.87559C30.3855 6.64238 30.1007 6.50702 29.8 6.50702V7.50702ZM6.06866 7.50702L5.10343 7.76843L6.06866 7.50702ZM1 2.48911H4.43881V0.489105H1V2.48911ZM10.1509 23.1142L27.3449 20.965L27.0969 18.9804L9.90283 21.1297L10.1509 23.1142ZM28.2001 20.1753L30.7793 7.70962L28.8207 7.30441L26.2416 19.7701L28.2001 20.1753ZM3.47358 1.75052L5.10343 7.76843L7.03388 7.2456L5.40403 1.22769L3.47358 1.75052ZM5.10343 7.76843L9.06164 22.3834L10.9921 21.8605L7.03388 7.2456L5.10343 7.76843ZM29.8 6.50702H6.06866V8.50702H29.8V6.50702ZM14.4 27.75C14.4 28.4404 13.8404 29 13.15 29V31C14.9449 31 16.4 29.5449 16.4 27.75H14.4ZM13.15 29C12.4596 29 11.9 28.4404 11.9 27.75H9.9C9.9 29.5449 11.3551 31 13.15 31V29ZM11.9 27.75C11.9 27.0597 12.4596 26.5 13.15 26.5V24.5C11.3551 24.5 9.9 25.9551 9.9 27.75H11.9ZM13.15 26.5C13.8404 26.5 14.4 27.0597 14.4 27.75H16.4C16.4 25.9551 14.9449 24.5 13.15 24.5V26.5ZM26.4 27.75C26.4 28.4404 25.8404 29 25.15 29V31C26.9449 31 28.4 29.5449 28.4 27.75H26.4ZM25.15 29C24.4596 29 23.9 28.4404 23.9 27.75H21.9C21.9 29.5449 23.3551 31 25.15 31V29ZM23.9 27.75C23.9 27.0597 24.4596 26.5 25.15 26.5V24.5C23.3551 24.5 21.9 25.9551 21.9 27.75H23.9ZM25.15 26.5C25.8404 26.5 26.4 27.0597 26.4 27.75H28.4C28.4 25.9551 26.9449 24.5 25.15 24.5V26.5Z" fill="black"/>
</svg>
