<svg width="81" height="110" viewBox="0 0 81 110" fill="none" xmlns="http://www.w3.org/2000/svg">
<path fill-rule="evenodd" clip-rule="evenodd" d="M43.4112 0.0708201C42.5882 0.184768 41.9393 0.435294 41.9393 0.638715C41.9393 0.722662 42.1528 0.911873 42.5279 1.16108C43.0236 1.49003 43.2855 1.92582 43.3408 2.51372C43.3781 2.91135 43.2884 3.91924 43.1387 4.78661C43.0353 5.38661 43.0337 5.43608 43.1149 5.63793C43.2369 5.94135 43.2231 6.06951 43.0435 6.29451C42.7533 6.65766 42.7342 7.01503 42.9908 7.28845C43.2064 7.51845 43.2138 7.65161 43.0448 8.24872C42.8572 8.91003 42.7816 9.52056 42.7808 10.375C42.7803 11.2103 42.7067 11.9487 42.5051 13.1477C42.3678 13.9627 42.3358 14.3064 42.3271 15.0571C42.3241 15.3924 42.319 15.7277 42.3117 16.0629C42.3009 16.2769 42.1189 16.2974 39.7073 16.3598C35.8545 16.459 32.2864 16.7158 31.8824 16.9227C31.6787 17.0269 31.6234 17.2103 31.6438 17.7166C31.6599 18.1192 31.6726 18.1624 31.8089 18.279C32.0118 18.4527 32.1507 18.439 32.7057 18.1895C34.5387 17.3664 36.7706 17.0348 40.5533 17.024C42.5784 17.0182 42.5128 17.0056 42.6271 17.4277C42.712 17.7408 42.6186 18.0256 42.1866 18.7714L41.8078 19.4253L41.7917 20.2885C41.7723 21.3166 42.3932 80.6485 42.4353 81.7837C42.5102 83.8148 42.9199 85.1322 44.0837 87.0832C44.4717 87.7343 44.6418 87.8466 44.8707 87.6037C44.9969 87.4698 45.5918 86.4645 45.8683 85.9185C46.4936 84.6827 46.7994 83.3735 46.8582 81.6793C46.8997 80.4787 47.5217 21.094 47.5021 20.184L47.4857 19.4253L47.1079 18.7714C46.9002 18.4119 46.7021 18.0198 46.6674 17.9003C46.5886 17.6271 46.6386 17.3498 46.8002 17.1629L46.9251 17.019L48.7563 17.025C52.5197 17.0374 54.6246 17.344 56.4865 18.1506C57.0224 18.3829 57.1089 18.4061 57.2372 18.3532C57.4367 18.2708 57.5007 18.0998 57.5007 17.6477C57.5007 16.9353 57.4256 16.8703 56.4746 16.7616C54.6947 16.5585 52.6432 16.4387 49.5861 16.3592C48.3153 16.3264 47.2217 16.2792 47.1558 16.2545C46.9746 16.1866 46.9457 16.0345 46.973 15.2927C46.9955 14.6835 46.978 14.4921 46.8053 13.4616C46.6704 12.6556 46.5971 12.0127 46.5611 11.3169C46.4915 9.97346 46.3772 8.98345 46.222 8.37372C46.0476 7.6903 46.0534 7.59108 46.2833 7.2974C46.4553 7.07766 46.4717 7.02977 46.4471 6.81398C46.4304 6.66635 46.3603 6.4903 46.2651 6.35608C46.0468 6.04872 46.031 5.97872 46.1262 5.7424C46.2209 5.50661 46.214 5.36793 46.0455 4.14977C45.9151 3.20845 45.904 2.46687 46.0146 2.09608C46.1246 1.72766 46.4272 1.36766 46.8873 1.05766C47.4833 0.65661 47.4476 0.471873 46.7312 0.25082C45.9476 0.008978 44.444 -0.072601 43.4112 0.0708201ZM15.1956 31.1121C15.08 31.1956 14.8943 31.3779 14.7829 31.5177C14.6718 31.6571 14.2819 32.0777 13.9168 32.4516C13.5517 32.8256 13.0861 33.3319 12.8814 33.5764C12.6772 33.8208 12.4102 34.1153 12.2885 34.2303C12.1669 34.3453 11.9296 34.6161 11.7616 34.8319C11.2973 35.4282 10.0738 36.6048 9.39656 37.1064C8.66483 37.6479 7.77756 38.11 6.92361 38.3943L6.28818 38.6056L5.46334 38.589C4.7041 38.5737 4.61574 38.5616 4.34723 38.4364C3.9364 38.2445 3.6663 37.9969 3.6663 37.8124C3.6663 37.6603 3.69011 37.6361 4.21047 37.255C4.54961 37.0069 4.66257 36.7548 4.66389 36.2424C4.66548 35.735 4.53374 35.4587 4.16734 35.1995C3.90651 35.0153 3.90571 35.015 3.3261 35.015C2.79807 35.015 2.71686 35.0285 2.41845 35.1656C1.93355 35.3885 1.65816 35.7066 1.48885 36.24C1.36716 36.624 1.35288 36.7521 1.35288 37.4808C1.35288 38.4406 1.44811 38.9021 1.77429 39.5219C2.51395 40.9274 3.90174 41.8814 5.76889 42.2682C5.99771 42.3156 6.55458 42.3414 7.45138 42.3461C8.18866 42.35 8.82092 42.3558 8.85636 42.3593C8.98784 42.3714 9.08122 42.669 9.08308 43.0819C9.08413 43.3064 9.11932 43.6311 9.16112 43.8037C9.22487 44.0666 9.23783 44.9706 9.23995 49.3753C9.24233 53.7798 9.25503 54.6837 9.31878 54.9466C9.38069 55.2011 9.39497 55.8048 9.39497 58.1379C9.39497 60.4708 9.38069 61.0745 9.31878 61.329C9.26535 61.549 9.2418 61.9711 9.23942 62.7414C9.23783 63.3456 9.21217 63.9343 9.18281 64.0493C9.15318 64.1645 9.10821 64.5058 9.08281 64.8079C9.02567 65.484 8.8061 66.1422 8.3085 67.1301C7.91962 67.9022 7.66169 68.3014 7.27202 68.7337C7.12493 68.8969 6.9043 69.1498 6.78129 69.2958C6.46569 69.6711 5.53794 70.4308 5.16917 70.6158C4.80145 70.8003 4.57077 70.8116 4.2565 70.66C3.96867 70.5214 3.7708 70.259 3.47292 69.6208C3.03643 68.6856 2.58855 67.8198 2.46554 67.674C2.25946 67.4298 1.86371 67.4927 1.56345 67.8172C1.49097 67.8953 1.25447 68.0945 1.03754 68.26C0.545756 68.6356 0.055294 69.1448 0.00899903 69.3274C-0.010048 69.4035 0.00212092 69.5329 0.0362469 69.615C0.13016 69.8406 2.11 71.7598 2.50972 72.0127C2.69755 72.1316 3.106 72.3248 3.4171 72.4419L3.98269 72.655H4.81547C5.72338 72.655 5.66995 72.6656 7.34635 72.149C8.19157 71.8885 8.79208 71.5795 9.87009 70.8501C10.6031 70.3543 10.946 70.0679 11.7801 69.2556C12.8983 68.1664 13.6599 67.1493 14.2835 65.9114C14.6036 65.2761 15.0747 63.9903 15.0744 63.7535C15.0739 63.6395 15.1247 63.3437 15.3149 62.3479C15.3758 62.0287 15.39 61.2045 15.3908 57.9798C15.3914 54.6906 15.4046 53.9508 15.4675 53.6911C15.5316 53.4279 15.5443 52.5145 15.5466 48.0411C15.5488 43.5679 15.5617 42.6545 15.6255 42.3914C15.6673 42.2187 15.7025 41.8574 15.7035 41.5882C15.7048 41.2606 15.7321 41.0435 15.7861 40.93C15.8432 40.81 16.2421 40.4808 17.1662 39.7911C17.8807 39.2577 18.5452 38.7806 18.6426 38.7314C18.96 38.5706 19.2955 38.7206 19.4346 39.0858C19.473 39.1869 19.4912 41.0611 19.4926 45.0495C19.4942 49.9445 19.5066 50.9158 19.5706 51.18C19.6346 51.4443 19.6468 52.3993 19.6473 57.2024L19.6484 62.9111L19.5198 63.4156C19.4489 63.6932 19.3251 64.0435 19.2447 64.194C19.1082 64.4495 18.363 65.2416 17.8963 65.6279C17.6476 65.8337 17.6405 66.0466 17.8789 66.1598C18.0066 66.2203 18.0767 66.2185 18.363 66.1472C18.5468 66.1011 18.7428 66.0635 18.7984 66.0635C18.854 66.0635 19.1299 65.9927 19.4119 65.9064C19.6936 65.8201 20.0055 65.7495 20.105 65.7495C20.2042 65.7495 20.5666 65.679 20.9102 65.5927C21.2536 65.5064 21.6131 65.4353 21.7089 65.4351C21.8044 65.4348 22.0129 65.3995 22.1719 65.3572C22.4002 65.2961 22.8478 65.2795 24.3012 65.2785C26.2879 65.2769 26.359 65.2679 26.4527 65.0029C26.5286 64.7882 26.3635 64.6093 25.8588 64.359C25.3321 64.0977 25.1064 63.8869 24.8943 63.4587C24.753 63.1729 24.726 63.049 24.6906 62.5172C24.6678 62.18 24.6247 61.8103 24.5948 61.6953C24.5596 61.5606 24.54 60.234 24.5398 57.9808C24.5392 55.0985 24.553 54.42 24.6154 54.1619C24.6795 53.8977 24.6922 52.8958 24.6943 47.8058C24.6966 42.7158 24.7091 41.714 24.7731 41.4495C24.8152 41.2769 24.8501 40.9843 24.8511 40.7993C24.8525 40.574 24.8874 40.3919 24.957 40.249C25.0683 40.0198 26.4733 38.6127 27.0611 38.1414C27.249 37.9908 27.5434 37.7553 27.7153 37.6182C27.9342 37.4414 28.149 37.2596 28.3595 37.0729C28.9616 36.5353 29.4261 36.3903 29.7981 36.624C30.0431 36.7777 30.7938 37.3993 30.7938 37.4485C30.7938 37.4695 31.0245 37.7319 31.3065 38.0316C31.5882 38.3314 31.9372 38.7271 32.0819 38.9114C32.3832 39.2953 33.2165 40.3643 33.6922 40.9771C34.0543 41.444 34.1585 41.6521 34.1585 41.9103C34.1585 42.1677 33.8861 42.669 33.5382 43.0514C33.3713 43.235 33.1546 43.4911 33.0567 43.6206C32.9381 43.7745 32.8124 43.9229 32.68 44.0653C32.5314 44.2265 32.3897 44.3939 32.2552 44.5669C31.7427 45.23 31.4896 45.5408 31.233 45.8221C31.0843 45.9853 30.7907 46.3748 30.5803 46.6877C30.3703 47.0006 30.0991 47.3861 29.9774 47.5443C29.8308 47.7433 29.6995 47.9531 29.5849 48.1719C29.4904 48.359 29.346 48.609 29.2642 48.7279C29.0346 49.0608 28.3754 50.4187 28.3754 50.5585C28.3754 50.7108 28.5476 50.8924 28.6923 50.8924C28.7508 50.8924 28.9333 50.8453 29.0978 50.7877C29.4505 50.6643 29.6296 50.6548 29.6693 50.7574C29.7089 50.8606 29.6195 51.0098 29.3216 51.3369C28.6926 52.0282 28.1503 53.0295 27.8976 53.9661C27.8376 54.189 27.7312 54.5548 27.6614 54.7793C27.5381 55.1753 27.5344 55.2374 27.5344 56.8821C27.5344 58.5329 27.5376 58.5877 27.6627 58.9853C27.7333 59.2098 27.8516 59.6329 27.9254 59.9258C28.1092 60.654 28.3918 61.3537 28.8743 62.2764L29.4592 63.3953C29.5568 63.5824 29.7449 63.8766 29.8772 64.0493C30.0654 64.2994 30.2488 64.553 30.4274 64.8101C30.634 65.1074 31.0854 65.5985 31.7777 66.279C33.1258 67.604 33.2099 67.6366 34.4739 67.319C34.8175 67.2327 35.1799 67.1619 35.2794 67.1619C35.3786 67.1619 35.6905 67.0914 35.9722 67.0051C36.254 66.9187 36.5468 66.8477 36.6228 66.8469C36.8185 66.8453 37.1889 66.6672 37.2561 66.5422C37.3415 66.3829 37.3249 66.0085 37.2058 65.4177C36.972 64.2577 36.7765 63.9222 36.3333 63.9198C36.0516 63.9182 35.6998 64.0956 34.5397 64.8232C33.9072 65.22 33.6191 65.2385 33.4559 64.8922C33.3837 64.7393 33.3424 64.5514 33.1369 63.4477C33.0842 63.165 33.0533 62.6979 33.0522 62.1661C33.0512 61.6198 33.0242 61.22 32.9745 61.015C32.9178 60.7816 32.8983 60.3461 32.8983 59.3148C32.8983 58.2837 32.9178 57.8482 32.9745 57.6148C33.0165 57.4422 33.0514 57.1358 33.0525 56.9345C33.0543 56.5845 33.2086 55.7158 33.4189 54.8703C33.4692 54.6704 33.5137 54.4691 33.5522 54.2666C33.7146 53.3029 35.2577 49.1461 35.8921 47.9627C35.9463 47.8621 36.109 47.4853 36.2537 47.1258C36.5325 46.4335 36.8336 45.755 36.9963 45.4516C37.0503 45.3508 37.213 44.9743 37.3579 44.6145C37.6375 43.9206 37.9471 43.2214 38.0838 42.974C38.1296 42.8916 38.3203 42.4561 38.5076 42.0061C38.6952 41.5564 38.9573 40.929 39.0901 40.6127C39.3108 40.0864 39.3333 39.9927 39.3526 39.5169C39.3846 38.7245 39.3703 38.6964 38.4772 37.7953C38.0537 37.3682 37.5293 36.8827 37.3119 36.7169C37.0944 36.5508 36.882 36.3735 36.8397 36.3229C36.7974 36.2721 36.5849 36.0927 36.3675 35.924C36.1032 35.7184 35.84 35.5113 35.5781 35.3027C34.0358 34.0729 32.7133 33.1527 31.6613 32.5771C31.1642 32.3053 30.2885 32.0069 29.9878 32.0069C29.4661 32.0069 29.2595 32.1206 28.5629 32.7903C28.214 33.1258 27.7868 33.5085 27.6132 33.6408C27.4397 33.7732 27.0492 34.1327 26.7458 34.4395C26.4421 34.7464 26.0516 35.105 25.8781 35.2366C25.7048 35.3682 25.4681 35.565 25.3524 35.674C25.0546 35.9548 24.8699 36.0156 24.6982 35.8895C24.6242 35.8353 24.3628 35.5069 24.117 35.1598C23.5409 34.3461 23.225 33.9485 22.8028 33.5058C22.3785 33.0608 22.2332 32.9816 21.9004 33.0135C21.6057 33.0416 21.097 33.3521 20.5997 33.8071C20.4325 33.96 20.1108 34.2093 19.8849 34.3611C19.659 34.5127 19.3397 34.76 19.1751 34.9103C19.0108 35.0608 18.6952 35.3053 18.4738 35.454C18.2524 35.6027 17.9886 35.7966 17.8876 35.8848C17.7865 35.9732 17.3902 36.279 17.0069 36.565C16.4389 36.9885 16.281 37.0819 16.1535 37.07C16.048 37.06 15.9755 37.0127 15.9308 36.9245C15.835 36.735 15.8421 35.265 15.9408 34.8579C15.9871 34.6677 16.0181 34.2658 16.0196 33.8379C16.0215 33.4098 16.0525 33.0079 16.0987 32.8177C16.1974 32.4108 16.2017 31.5877 16.1062 31.36C15.9368 30.9569 15.5551 30.8529 15.1956 31.1121ZM61.2599 32.8737C61.1152 32.9137 60.8078 32.9471 60.5763 32.9482C60.3451 32.949 60.0258 32.9845 59.8665 33.0271C59.7075 33.0695 59.4213 33.1045 59.2306 33.1048C58.6353 33.1058 56.8468 33.6658 55.8447 34.1645C54.3654 34.9011 53.7416 35.4806 52.8813 36.9177C52.6593 37.2885 52.2964 38.3656 52.2953 38.6566C52.2948 38.7829 52.2601 39.0274 52.2183 39.2C52.1292 39.5672 52.1152 40.2729 52.1919 40.5345C52.2215 40.635 52.2673 40.9235 52.294 41.1753C52.3236 41.4566 52.3837 41.709 52.449 41.8293C52.5078 41.9369 52.612 42.1545 52.6808 42.3129C52.8141 42.62 53.5366 43.4703 53.9357 43.7898C54.5275 44.2632 55.1492 44.6114 55.4071 44.6135C55.6201 44.6153 55.8508 44.3887 55.9539 44.0769C56.0034 43.9266 56.1804 43.4622 56.3473 43.0448C56.6682 42.2408 56.8174 41.7458 56.8174 41.485C56.8174 41.2374 56.6142 41.1098 56.2188 41.109C56.042 41.1087 55.7672 41.0735 55.6082 41.0311C55.4492 40.9887 55.2347 40.9535 55.1315 40.9532C54.8701 40.9524 54.4416 40.8177 54.2683 40.6821C54.0717 40.5285 53.9283 40.1953 53.927 39.889C53.9257 39.5845 54.1019 38.8703 54.2495 38.5827C54.3924 38.3043 54.7712 37.9079 55.0884 37.7056C55.9132 37.1787 56.9007 37.0443 58.9729 37.1764C59.5501 37.2132 59.9335 37.2677 60.2872 37.3632C60.562 37.4371 60.8742 37.4982 60.981 37.499C61.0879 37.4995 61.3601 37.5574 61.5858 37.6277C61.8112 37.6979 62.2323 37.8153 62.5215 37.8885C63.4394 38.1211 64.4328 38.5121 65.6497 39.1203C65.9534 39.2719 66.2724 39.4461 66.3589 39.5074C66.5018 39.6085 66.7573 39.7469 68.256 40.535C68.9586 40.9048 69.9885 41.1956 70.8331 41.2629C71.4212 41.3098 71.531 41.485 71.1736 41.8064C70.9165 42.0371 70.8382 42.179 70.8847 42.3279C70.9363 42.4924 71.7694 43.3295 72.5103 43.9614C73.2196 44.5664 74.1148 45.4664 74.5087 45.9706C75.9203 47.7777 76.2632 48.3235 77.042 50.0029C77.3816 50.7353 77.9038 52.5124 77.9004 52.9248C77.8975 53.3069 77.5671 54.1208 77.1113 54.8682C76.2616 56.2616 75.6703 57.0187 74.6571 58.0119C73.2267 59.4137 72.395 59.9443 71.6315 59.9419C71.3382 59.9408 70.7033 59.7966 70.4879 59.6819C70.3033 59.5835 69.366 59.1727 68.9356 59.0014C68.6511 58.8846 68.3701 58.7598 68.0928 58.6272C67.78 58.478 67.4657 58.3322 67.1497 58.19C66.892 58.075 66.0428 57.6672 65.2621 57.2837C64.4817 56.9003 63.6876 56.5274 63.4979 56.4553C62.8112 56.1943 61.6157 55.8211 61.0496 55.6911C59.761 55.3951 59.7202 55.39 58.6682 55.3906C57.6581 55.3914 57.6502 55.3922 56.8066 55.6032C55.8748 55.8364 54.7704 56.2464 54.3045 56.5319C54.1397 56.6329 53.8839 56.7824 53.7363 56.8643C53.5887 56.9458 53.3641 57.1024 53.2368 57.2119C53.1098 57.3214 52.8588 57.5224 52.6792 57.6585C52.2035 58.0185 51.6329 58.6914 50.9641 59.6811C50.1433 60.8961 50.0433 61.1103 49.5398 62.7308C49.3205 63.4372 49.2994 63.5516 49.2994 64.0422C49.2994 64.525 49.3142 64.6087 49.4441 64.864C49.5584 65.0885 49.6491 65.1837 49.8777 65.3195C50.2549 65.5435 50.916 65.7493 51.2604 65.7501C51.411 65.7506 51.6639 65.7856 51.8228 65.8279C52.2369 65.9385 54.7212 65.9385 55.1352 65.8279C55.2942 65.7856 55.5738 65.7506 55.7569 65.7501C56.0539 65.7495 56.1058 65.7332 56.2431 65.5966C56.3928 65.4477 56.3968 65.43 56.3968 64.9103C56.3968 64.6169 56.359 64.1737 56.3127 63.9253C55.9685 62.0785 56.0336 62.1332 54.7058 62.5782C54.1645 62.76 53.6241 62.9448 53.0847 63.1324C52.2757 63.4151 52.0673 63.4358 51.8617 63.2537C51.5625 62.9885 51.5781 62.4958 51.9075 61.8314C52.2461 61.1479 53.19 60.3698 54.1439 59.9877L54.5831 59.8119H55.7923C57.2663 59.8119 57.6203 59.8777 59.4724 60.4964C61.0244 61.0148 61.7202 61.2903 62.4577 61.6779C62.7021 61.8073 62.9494 61.9311 63.1995 62.0493C63.341 62.1135 63.8378 62.3595 64.3034 62.5964C64.769 62.8329 65.8634 63.384 66.7351 63.8208C68.6417 64.7766 68.6012 64.7672 69.4348 64.4535C69.6873 64.3577 69.9414 64.2663 70.1972 64.1795C70.9294 63.9482 72.7598 62.8664 73.8661 62.0111C74.3577 61.6311 76.7965 59.1979 77.1912 58.6937C77.4224 58.3982 77.9327 57.7095 78.4364 57.0129C78.6377 56.7345 78.9467 56.1682 79.3498 55.339C79.5107 55.0082 79.6736 54.6785 79.7123 54.6066C79.8525 54.3448 80.2122 53.1977 80.4461 52.2677L80.6855 51.315V47.2385L80.5342 46.5935C80.451 46.2395 80.3701 45.885 80.2913 45.53C80.0522 44.4379 79.4001 42.7837 78.9506 42.1298C78.8715 42.0145 78.7319 41.7721 78.6401 41.5908C78.1044 40.5321 76.0613 38.2953 74.6497 37.2214C74.3081 36.9614 73.9663 36.7017 73.6243 36.4421C73.4455 36.3064 73.1807 36.1316 73.0363 36.054C72.8916 35.9764 72.6077 35.8024 72.4053 35.6679C72.203 35.5332 71.9191 35.3645 71.7744 35.2929C71.5189 35.1639 71.2648 35.0323 71.012 34.8982C70.4517 34.6011 68.6853 33.8906 68.1941 33.7645C67.9672 33.7031 67.7432 33.6318 67.5227 33.5508C67.3298 33.4785 67.0806 33.4195 66.9692 33.4195C66.8579 33.4195 66.5359 33.3487 66.2542 33.2624C65.906 33.1558 65.6301 33.1053 65.3934 33.1048C65.2018 33.1045 64.9151 33.0695 64.7558 33.0271C64.5968 32.9845 64.2421 32.9492 63.9672 32.9485C63.6926 32.9479 63.3379 32.9127 63.1786 32.87C62.8048 32.7703 61.6257 32.7724 61.2599 32.8737ZM62.4426 39.0466C62.1969 39.1482 61.7355 39.304 61.4175 39.3927C61.0996 39.4816 60.6028 39.6222 60.3136 39.7048C60.0245 39.7874 59.634 39.8921 59.4462 39.9377C58.3145 40.2108 58.0277 40.3361 57.9457 40.5927C57.9023 40.7287 58.0449 40.9358 58.2832 41.0835C59.1509 41.6203 59.33 41.8003 59.4729 42.2785C59.5782 42.6314 59.5784 43.9464 59.4734 44.3793C59.4271 44.5855 59.4007 44.7957 59.3946 45.0069C59.393 45.1795 59.3576 45.4622 59.3158 45.6348C59.2737 45.8074 59.2388 46.184 59.238 46.4719C59.2364 46.9545 59.2084 47.1621 58.9954 48.2779C58.9541 48.4943 58.9205 48.8945 58.9205 49.1672C58.9208 49.6245 58.8927 49.8314 58.6801 50.9458C58.6388 51.1621 58.6044 51.5037 58.6041 51.7045C58.6036 51.905 58.569 52.2106 58.5272 52.3832C58.4851 52.5558 58.4502 52.7985 58.4491 52.9222C58.4481 53.0461 58.4092 53.3143 58.3623 53.5182C58.2502 54.0095 58.2835 54.4329 58.4449 54.5629C58.5105 54.6158 58.6144 54.6587 58.6764 54.6585C58.8808 54.6574 59.3136 54.4169 59.6319 54.1272C59.8044 53.9703 60.2176 53.6353 60.5501 53.3827C60.8826 53.1303 61.2982 52.814 61.4736 52.6795C61.6493 52.5453 61.9011 52.3611 62.0337 52.2703C62.2974 52.0893 62.6672 51.5887 62.7871 51.2508C62.8291 51.1327 62.8638 50.8566 62.8646 50.6372C62.8651 50.4179 62.8937 50.1443 62.9276 50.0293C62.9717 49.879 62.9977 48.4666 63.0191 45.0332L63.0487 40.2464L63.2188 39.7787C63.4133 39.2445 63.4289 39.0693 63.2929 38.9466C63.1492 38.8171 62.9379 38.8421 62.4426 39.0466ZM79.2493 69.9564C78.8115 70.1156 78.6641 70.3732 78.6792 70.9519C78.694 71.5235 78.5671 71.7714 77.9602 72.3535C77.0594 73.2174 76.8777 73.2814 76.3549 72.9169C75.9999 72.6693 74.2968 71.3793 73.7722 70.9603C73.5233 70.7684 73.2596 70.5961 72.9836 70.4451C72.5958 70.2406 72.5323 70.2235 72.1688 70.2245C71.6027 70.2264 71.1577 70.4298 70.1853 71.1319C68.6089 72.2695 66.4243 73.9948 65.8486 74.5564C65.4407 74.9543 65.155 75.364 65.0764 75.6637C64.9463 76.1603 64.8619 77.1206 64.8627 78.0956C64.8632 78.9672 64.8857 79.2545 65.0166 80.0679C65.2545 81.5477 65.4817 81.9845 66.4965 82.9137C67.2224 83.5785 68.4456 84.5527 68.7213 84.6853C69.0409 84.8393 69.2589 84.8201 69.7025 84.5993C70.0311 84.4356 70.2435 84.2569 71.1159 83.4093C72.2059 82.3498 72.4939 82.1424 72.9503 82.0887C73.431 82.0322 73.678 82.1035 73.9553 82.3795C74.2346 82.6574 74.3899 83.039 74.4799 83.6672C74.5497 84.1543 74.5479 87.4174 74.4775 87.7214C74.3719 88.179 74.1439 88.7374 73.9928 88.9085C73.8722 89.0451 73.7997 89.0816 73.6482 89.0816C73.4897 89.0816 73.3733 89.0169 72.9831 88.7108C71.7006 87.7056 70.3848 86.8535 69.7348 86.6074C69.3462 86.4603 69.2488 86.4445 68.7515 86.4487C68.2803 86.4527 68.1224 86.4782 67.6737 86.6229C66.6383 86.9564 66.2047 87.2635 64.8349 88.634C63.6207 89.8485 63.0638 90.5108 62.7381 91.1282C62.3974 91.7745 62.3236 92.0427 62.3456 92.5593C62.3617 92.9456 62.3823 93.0224 62.5231 93.2216C62.6325 93.3673 62.7624 93.4965 62.9088 93.6053C63.113 93.7482 63.1746 93.7637 63.5381 93.7637C64.0082 93.7637 64.2553 93.6464 64.4725 93.3201C64.7383 92.9198 64.7069 92.5577 64.3603 92.0324C64.0429 91.5516 64.0479 91.4374 64.4018 91.0964C64.6066 90.899 64.7944 90.7827 65.1248 90.6487C65.5441 90.4787 65.6068 90.468 66.1753 90.468C66.8592 90.468 66.9581 90.4974 67.9891 91.0069C68.7753 91.3953 69.138 91.6303 70.7493 92.7953C72.6215 94.149 72.7754 94.228 73.1572 94.0301C73.3222 93.9445 73.881 93.3729 74.7711 92.3795C75.0846 92.029 75.4 91.6803 75.7174 91.3332C76.2057 90.8043 77.7634 89.0298 78.4612 88.208C79.1086 87.4456 79.1382 87.2393 79.0676 83.9811C79.0102 81.3311 79.0014 81.2687 78.6292 80.8477C78.3403 80.5211 77.007 79.5277 76.611 79.344C75.5513 78.8524 74.9346 78.9616 73.6082 79.8748C72.2569 80.8056 71.8559 80.9248 71.208 80.5887C70.7631 80.3579 69.853 79.7132 69.6752 79.5029C69.489 79.2829 69.3065 78.9185 69.2004 78.5548C69.1266 78.3024 69.1165 78.0114 69.13 76.5429L69.1456 74.8261L69.2874 74.5861C69.4565 74.3 69.8004 73.9785 69.9877 73.9319C70.1747 73.8851 70.4049 73.9395 70.6117 74.0795C70.8046 74.2098 71.6614 74.8987 72.8476 75.8766C74.4383 77.1882 74.7129 77.3448 75.137 77.1837C75.7148 76.9643 78.0078 74.6422 79.7845 72.4779C80.1366 72.049 80.3638 71.6724 80.4511 71.3735C80.6175 70.8037 80.4622 70.3145 80.0369 70.069C79.749 69.9027 79.4967 69.8666 79.2493 69.9564ZM15.9157 71.3437C15.7048 71.4082 15.349 71.5985 13.7602 72.4974C10.8857 74.124 10.7875 74.2001 10.7928 74.7961C10.7955 75.0724 10.8299 75.2119 10.9695 75.5061C11.1078 75.8009 11.2433 76.0969 11.3759 76.3943C11.7491 77.2322 12.5626 78.6343 12.8557 78.9458C12.9303 79.0248 13.0454 79.0895 13.1118 79.0895C13.3261 79.0895 13.4091 78.8751 13.4494 78.2195C13.4822 77.6869 13.5057 77.5829 13.6716 77.2353C13.8927 76.7716 14.0332 76.6572 14.943 76.1972C16.749 75.2845 17.0416 75.1877 17.2799 75.4248C17.4529 75.5972 17.481 75.8643 17.5167 77.6511C17.5357 78.6006 17.5722 79.6951 17.5987 80.0835C17.664 81.0569 17.6609 84.8364 17.5942 85.6027C17.564 85.948 17.5159 86.8072 17.4876 87.5122C17.3836 90.0727 17.3686 90.159 16.9789 90.4127C16.4276 90.7714 16.3387 90.6806 15.8324 89.2411C15.3543 87.8827 15.0908 87.0153 14.9657 86.3874C14.9114 86.1161 14.8521 85.8458 14.7877 85.5766C14.6734 85.1148 14.6207 83.7924 14.7046 83.4872C14.7864 83.1903 15.2501 82.7037 16.063 82.0619C16.4022 81.7945 16.6799 81.5335 16.7101 81.4545C16.8318 81.1356 16.5117 80.934 15.9736 80.9908C15.3583 81.0558 13.639 81.7764 12.756 82.3393C11.6753 83.0282 10.6277 84.034 10.2883 84.7087C10.1468 84.9898 10.1328 85.0656 10.1328 85.5429C10.1328 86.1322 10.1905 86.3793 10.7222 88.0614C11.6021 90.8466 12.3161 92.8253 12.6065 93.284C12.8129 93.6095 13.1753 93.7856 13.7239 93.8269C14.2467 93.8661 14.5721 93.7614 15.1271 93.3753C15.3731 93.2043 15.8175 92.8982 16.1157 92.6948C16.8942 92.1635 17.0159 92.1822 17.3892 92.8901C17.4847 93.0714 17.6315 93.2772 17.7154 93.3474C18.0992 93.6687 19.0349 93.724 19.615 93.4598C19.9029 93.3287 20.1325 93.124 20.8597 92.3509C21.2764 91.9077 22.2925 90.9714 22.9221 90.4503C23.1758 90.2403 23.4202 90.0124 23.4655 89.9437C23.6329 89.6895 23.4218 89.5001 22.971 89.5001C22.6462 89.4998 22.3787 89.3619 22.2621 89.134C22.1851 88.9832 22.1726 88.8585 22.1922 88.4277C22.2832 86.4314 22.3332 83.4853 22.3094 81.5485C22.2631 77.7993 22.1943 77.5803 20.3851 75.444C19.6053 74.5229 18.7873 73.6382 17.5717 72.3998C16.5347 71.3435 16.335 71.2161 15.9157 71.3437ZM35.4723 73.2435C35.1887 73.4356 35.1143 73.5864 35.027 74.1458C34.8665 75.1761 34.8596 75.1785 33.6326 74.6403C31.7523 73.8153 31.3594 73.7603 30.5301 74.2061C29.2391 74.9001 26.6945 77.2443 26.3551 78.0527C26.2146 78.3877 26.117 79.2945 26.0612 80.7898C26.031 81.5956 25.9786 82.6666 25.9448 83.1701C25.9104 83.6822 25.8823 85.3537 25.8807 86.963C25.8784 89.5998 25.8879 89.9253 25.9945 90.8603C26.1101 91.8735 26.2548 92.4637 26.5074 92.9498C26.6633 93.2495 27.0646 93.5977 27.4921 93.8043C28.428 94.2561 30.6216 95.009 31.1962 95.0756C31.3364 95.0919 31.68 95.1522 31.9602 95.2098C32.4398 95.3087 32.4888 95.3098 32.8014 95.2322C33.2752 95.1143 33.89 94.7972 34.5212 94.3448C35.1966 93.8608 35.3416 93.794 35.4601 93.9119C35.5392 93.9903 35.5358 94.0201 35.4172 94.2987C35.212 94.7816 35.2413 95.1264 35.5633 96.0132C36.0371 97.318 36.5243 99.1351 36.5243 99.5969C36.5243 99.7229 36.5749 100.077 36.637 100.384C36.6989 100.691 36.7344 101.003 36.7156 101.077C36.6704 101.257 36.5434 101.375 36.3966 101.375C36.3304 101.375 35.7723 101.211 35.1561 101.009C34.54 100.807 33.8802 100.618 33.6898 100.588C33.4349 100.544 33.1817 100.491 32.9308 100.429C32.5599 100.335 32.3816 100.326 31.1697 100.342C29.9351 100.359 29.7679 100.372 29.1904 100.501C28.1762 100.728 27.5262 101.09 25.9834 102.289C24.5173 103.428 23.3057 104.427 22.8766 104.852C22.4763 105.248 22.3888 105.365 22.3377 105.571C22.248 105.933 22.3385 106.272 22.6467 106.728C23.3046 107.701 25.0374 109.365 25.8257 109.782C26.1569 109.957 26.241 109.978 26.667 109.995C27.0611 110.011 27.2138 109.992 27.5831 109.88C27.8267 109.806 28.0775 109.746 28.1402 109.746C28.4415 109.746 30.5256 109.07 30.6756 108.924C30.8274 108.776 30.8245 108.722 30.6592 108.614C30.5322 108.531 30.4938 108.533 29.97 108.644C29.3291 108.78 29.1053 108.765 28.5804 108.546C27.6537 108.161 26.0593 106.879 25.5194 106.085C25.3196 105.791 25.4805 105.345 25.8379 105.202C26.0575 105.114 26.8487 104.894 27.0873 104.855C27.2032 104.836 27.5344 104.777 27.8235 104.725C28.724 104.561 29.274 104.514 30.278 104.514C31.2771 104.514 31.9142 104.579 32.8705 104.777C33.8847 104.988 34.4813 105.194 35.6231 105.728C36.3288 106.058 36.5976 106.104 36.8452 105.94C36.982 105.848 38.1664 104.569 38.8637 103.758C39.2891 103.264 39.9563 102.533 40.698 101.748C41.3464 101.061 41.411 100.928 41.4123 100.277C41.4134 99.7458 41.3544 99.3572 41.1015 98.2366C40.8692 97.2074 40.6954 96.6358 40.1787 95.2024C39.9245 94.4974 39.6192 93.6501 39.5005 93.319L39.2843 92.7174L39.2695 85.8119C39.2613 82.014 39.2748 78.3177 39.2991 77.5977C39.3425 76.3124 39.346 76.2843 39.4859 76.0282C39.6719 75.6887 39.8901 75.5466 40.3647 75.4569C40.7348 75.3866 40.8877 75.2935 40.8877 75.1379C40.8877 75.0037 40.5359 74.8079 39.5997 74.4216L38.8902 74.1287C38.6732 74.0393 38.187 73.8374 37.8098 73.6801C36.7741 73.2479 36.372 73.1258 35.9839 73.1258C35.7201 73.1258 35.608 73.1516 35.4723 73.2435ZM54.7611 73.6656C54.632 73.7175 54.5087 73.7824 54.3929 73.8593C54.0791 74.0758 53.2313 74.7072 52.7104 75.1127C52.4056 75.3495 52.1001 75.5853 51.7937 75.8201C50.7954 76.5835 49.8351 77.3658 49.66 77.5587C49.5555 77.6737 49.4182 77.9058 49.3547 78.0743C49.2467 78.3616 49.2057 78.605 49.0917 79.639C49.0663 79.869 48.9962 80.3116 48.9359 80.6224C48.8309 81.1643 48.8264 81.349 48.8264 85.1253C48.8264 90.1603 48.8306 90.1969 49.542 91.1072C50.206 91.9572 52.1884 93.8843 53.1109 94.5766C53.7577 95.0622 54.108 95.124 56.2129 95.124H57.5798L57.8618 94.9685C58.2012 94.7814 58.5899 94.344 59.438 93.1948C59.775 92.738 60.2723 92.0669 60.5435 91.7037C61.103 90.9545 61.2535 90.6703 61.2014 90.4632C61.1387 90.2148 60.2107 88.8643 59.7935 88.4145C59.6237 88.2316 59.4007 88.1885 59.2927 88.3177C59.2591 88.3579 59.116 88.8229 58.9742 89.3508C58.475 91.2122 57.8907 92.6348 57.4767 92.9964C57.2372 93.2056 57.0394 93.2111 56.3809 93.0269C55.05 92.6545 54.3442 92.0937 54.0006 91.1361C53.8548 90.7298 53.8548 90.728 53.8127 88.794C53.7897 87.7293 53.7561 86.7206 53.7381 86.5524C53.7016 86.2114 53.8231 85.7858 53.9569 85.7858C54.0323 85.7858 54.0799 85.8479 54.5556 86.5706C54.832 86.9908 55.2743 87.3856 55.6672 87.563C55.9971 87.7119 56.4833 87.7066 56.7137 87.5514C56.9537 87.3898 57.1327 87.035 57.1327 86.7214C57.1327 86.5027 57.1074 86.4437 56.9357 86.2645C56.805 86.1282 56.6587 86.0382 56.5021 85.9974C56.3792 85.9655 56.2565 85.9326 56.1341 85.8987C56.0619 85.8785 55.9738 85.8014 55.9381 85.7277C55.719 85.2727 56.5314 84.4469 57.7811 83.855C58.0174 83.7429 59.0385 83.3764 60.0507 83.0401C62.1101 82.3556 62.4117 82.2285 62.5855 81.9716C62.7384 81.7458 62.7371 81.5424 62.5786 81.0956C62.4511 80.7356 62.3649 80.5208 61.9421 79.5082C61.8184 79.2121 61.6956 78.9156 61.5736 78.6187C60.7369 76.5732 60.5242 76.1311 60.2782 75.9251C60.0514 75.7353 58.5057 74.9245 57.2886 74.3572C55.8013 73.6637 55.2045 73.5003 54.7611 73.6656ZM55.2709 76.0811C55.428 76.2377 56.841 79.0561 56.9523 79.4353C57.0801 79.8706 56.9968 79.9869 56.2423 80.4266C55.9984 80.5687 55.6378 80.8351 55.441 81.0182C54.9294 81.4943 54.7286 81.8079 54.2389 82.8956C54.0675 83.2761 53.9746 83.3535 53.8934 83.1832C53.8694 83.1329 53.8416 82.1782 53.8318 81.0616C53.8151 79.1511 53.8207 78.9972 53.9283 78.4458C53.991 78.1237 54.0619 77.6927 54.086 77.4877C54.1392 77.0337 54.409 76.3693 54.6389 76.1266C54.8482 75.9061 55.0783 75.8895 55.2709 76.0811ZM32.5025 77.1106C33.0723 77.3035 33.949 77.6932 34.2345 77.8808C34.3485 77.9558 34.4905 78.0998 34.5498 78.2003C34.6572 78.3819 34.658 78.4251 34.6532 83.7456C34.6479 89.8011 34.6088 91.1319 34.4223 91.6187C34.2263 92.1303 33.7043 92.5364 32.9385 92.7732C32.6462 92.8635 32.6279 92.8632 32.2287 92.7574C32.0033 92.698 31.7356 92.6351 31.6335 92.6177C31.389 92.5764 31.0922 92.3269 30.9586 92.0506C30.6888 91.4932 30.6724 91.3387 30.6243 88.9248C30.57 86.2016 30.5698 86.4558 30.6277 82.1761C30.6639 79.4735 30.6909 78.6556 30.7549 78.3048C30.7994 78.0603 30.8533 77.759 30.8748 77.6351C30.9248 77.3435 31.0912 77.0995 31.3205 76.9814C31.5552 76.8606 31.8626 76.894 32.5025 77.1106Z" fill="black"/>
</svg>
